# xmcd
#
# Track frame offsets: 
#        150
#        73911
#        81972
#        115888
#        128877
#        135451
#        168788
#        220103
#        271591
#        309040
#        321764
#
# Disc length: 4482 seconds
#
# Revision: 0
# Processed by: cddbd v1.4PL0 Copyright (c) Steve Scherf et al.
# Submitted via: ExactAudioCopy v0.95a3
#
DISCID=9011800b
DTITLE=Various Artist - Vyber vyberu country a trampske
DYEAR=2003
DGENRE=Country
TTITLE0=pojd kamarade - tramp kapitan - pojd v chatu mou - pisen sever
TTITLE0=u - pisen stareho pistolnika - montana - stary serif - krasna 
TTITLE0=isa
TTITLE1=co to jen ty trampy napada
TTITLE2=kamarade prodam boudu - prijde kamaradi - parohatej charlie
TTITLE3=nechtej holka trampa nebo kovboje
TTITLE4=je na zapad cesta dlouha
TTITLE5=jel kovboj tichou stepi - pomalu jedu tichou pustinou - leti s
TTITLE5=ip savanou - bile kanoe - kapitan
TTITLE6=ve straznim kosi - chajda na vode - modry dym - dajo nevolej -
TTITLE6=anita - o mariano - jaro na aljasce - my jsme kluci ockovani 
TTITLE6=sat
TTITLE7=osada stara zas - kam tak spechas - na osade hrali - ascalona 
TTITLE7=az ztichnou bile skaly - jezero drima - malajka
TTITLE8=reka huci - ja prijdu za tebou - v dali - marta - konicku
TTITLE9=hvezdicko ma mala
TTITLE10=ricatado - nezapominejte kamaradi
EXTD=
EXTT0=
EXTT1=
EXTT2=
EXTT3=
EXTT4=
EXTT5=
EXTT6=
EXTT7=
EXTT8=
EXTT9=
EXTT10=
PLAYORDER=
